<svg xmlns="http://www.w3.org/2000/svg" xmlns:xlink="http://www.w3.org/1999/xlink" preserveAspectRatio="xMidYMid meet" version="1.0" viewBox="518.5 513.3 961.3 975.0" zoomAndPan="magnify" style="fill: rgb(0, 0, 0);" original_string_length="1104" width="64.66906105354886px" height="65.61117016359017px"><g id="__id0_sl98um6zl"><path d="M 1469.160156 1443.550781 L 1195.640625 893.410156 C 1115.109375 965.441406 1044.238281 1091.820312 1048.191406 1195.371094 L 1130.949219 1358.570312 C 1133.921875 1364.429688 1138.988281 1368.949219 1145.148438 1371.238281 L 1436.648438 1479.679688 C 1458.851562 1487.941406 1479.710938 1464.761719 1469.160156 1443.550781 Z M 978.316406 1142.910156 C 977.613281 1143.941406 976.964844 1145.039062 976.386719 1146.21875 L 872.546875 1356.671875 C 869.597656 1362.648438 864.472656 1367.28125 858.222656 1369.609375 L 561.351562 1480.039062 C 539.277344 1488.261719 518.457031 1465.371094 528.710938 1444.171875 L 969.386719 533 C 978.84375 513.449219 1006.648438 513.289062 1016.320312 532.738281 L 1186.289062 874.621094 C 1093.089844 941.238281 1020.109375 1034.339844 978.316406 1142.910156" style="fill: rgb(189, 153, 111);"/></g></svg>